PathFileType	4	(X/Y/Z)	./resultDataOpenSim/trcMotMarkerGrf/sub10/qtm-12-05.trc
DataRate	CameraRate	NumFrames	NumMarkers	Units	OrigDataRate	OrigDataStartFrame	OrigNumFrames
250.000000	250.000000	11	24	m	250.000000	444	507
Frame#	Time	L.Toe.Tip			R.Toe.Tip			L.Ankle.Lat			R.Ankle.Lat			L.Ankle.Med			R.Ankle.Med			L.Heel			R.Heel			L.Knee.Lat			R.Knee.Lat			L.Knee.Med			R.Knee.Med			L.Thigh.Upper			R.Thigh.Upper			L.ASIS			R.ASIS			V.Sacral			L.Acromium			R.Acromium			C7			L.Elbow			R.Elbow			L.Wrist.Lat			R.Wrist.Lat
		X1	Y1	Z1	X2	Y2	Z2	X3	Y3	Z3	X4	Y4	Z4	X5	Y5	Z5	X6	Y6	Z6	X7	Y7	Z7	X8	Y8	Z8	X9	Y9	Z9	X10	Y10	Z10	X11	Y11	Z11	X12	Y12	Z12	X13	Y13	Z13	X14	Y14	Z14	X15	Y15	Z15	X16	Y16	Z16	X17	Y17	Z17	X18	Y18	Z18	X19	Y19	Z19	X20	Y20	Z20	X21	Y21	Z21	X22	Y22	Z22	X23	Y23	Z23	X24	Y24	Z24

444	1.772	1.540152	0.13325093	-0.16576033	0.77820783	0.038435075	0.0043279873	1.4132297	0.089405672	-0.19517029	0.64886067	0.091530618	0.037116254	1.4146433	0.12031395	-0.11658747	0.67613929	0.10763405	-0.047295545	1.3736874	0.032300854	-0.14943288	0.59234537	0.081961029	-0.0086926286	1.2501383	0.44894796	-0.21704986	0.86324697	0.43465731	0.064249488	1.2660579	0.42171254	-0.096737448	0.89450786	0.42461226	-0.0601931	1.103423	0.79996491	-0.2635397	0.95629564	0.83313931	0.10080657	1.1352283	0.91232473	-0.17906745	1.0545752	0.91738469	0.063252941	0.90461351	0.91389686	-0.13049337	1.022045	1.3828345	-0.22176618	0.99608298	1.3631575	0.1045648	0.92071406	1.402044	-0.068552318	0.88876702	1.0644358	-0.26681842	1.0735722	1.0158354	0.16799515	0.95751908	0.84137187	-0.32591928	1.3111557	0.9560926	0.11668322
445	1.776	1.5453738	0.13165262	-0.16630919	0.77856508	0.038476259	0.0043452059	1.4184481	0.088482491	-0.19567747	0.65032279	0.093682064	0.037515547	1.4192435	0.1200682	-0.11719797	0.67764387	0.10936818	-0.046933391	1.3786009	0.031528244	-0.1499145	0.59359955	0.084952937	-0.0081966414	1.257794	0.44898523	-0.21743462	0.86780794	0.43454474	0.064027608	1.2739424	0.42217952	-0.097123778	0.89923767	0.42422147	-0.06028034	1.1101689	0.79981579	-0.26405911	0.96165711	0.83275362	0.099904122	1.1417055	0.91180213	-0.17910963	1.0603392	0.91676516	0.062978995	0.90996306	0.91360016	-0.1319403	1.0278836	1.3823425	-0.22260699	1.0019231	1.3626651	0.10379768	0.92660759	1.40144	-0.069390789	0.89503611	1.0636002	-0.2677097	1.0794883	1.0151253	0.16630949	0.96337247	0.84074503	-0.32610392	1.3173378	0.95578204	0.11505638
446	1.78	1.5501524	0.13002663	-0.16670595	0.77895669	0.038519239	0.0043438194	1.423366	0.087452875	-0.19618007	0.65195829	0.095933968	0.037924103	1.4240112	0.1195404	-0.11759226	0.67927379	0.11117508	-0.046565511	1.3831857	0.030669165	-0.15037318	0.59494109	0.08810148	-0.0076974165	1.2653998	0.44899763	-0.21786843	0.87246861	0.43439381	0.063804137	1.2818858	0.42265946	-0.09756235	0.90405915	0.42388513	-0.060357881	1.1169517	0.79975027	-0.26457081	0.96711932	0.8323719	0.099001994	1.1482413	0.91136262	-0.17918986	1.0661941	0.9161874	0.062684881	0.91553626	0.91328999	-0.1334331	1.0337824	1.3818977	-0.22347412	1.0078235	1.3622326	0.10298972	0.93255419	1.4008996	-0.070237318	0.90234922	1.0626061	-0.26835654	1.0854136	1.0144679	0.16463067	0.96929631	0.84015194	-0.32630044	1.323444	0.95545929	0.11345037
447	1.784	1.5546041	0.12835756	-0.16706197	0.77938323	0.038553078	0.0043313951	1.4279992	0.086324324	-0.19666684	0.65375835	0.098266789	0.038330475	1.4291102	0.11855556	-0.1177996	0.68102632	0.11305562	-0.046178751	1.3874632	0.029731236	-0.1508195	0.59636706	0.091403594	-0.0072009621	1.2729457	0.44899024	-0.2183445	0.87724601	0.43427028	0.063597368	1.2898211	0.42312237	-0.09806669	0.90898622	0.42359779	-0.060424141	1.123773	0.79975903	-0.26507176	0.97269123	0.83199239	0.098115762	1.1548431	0.91100595	-0.17931658	1.0721419	0.91564915	0.062366714	0.92175178	0.91293879	-0.1350339	1.0397346	1.3815012	-0.22436574	1.0137681	1.3618507	0.10214901	0.93854801	1.4004196	-0.07110529	0.9101685	1.0614315	-0.26868168	1.0913061	1.0138475	0.16291675	0.97528308	0.83959574	-0.32651422	1.3294757	0.95512925	0.11186691
448	1.788	1.5588972	0.12656273	-0.16753378	0.77983388	0.038564541	0.0043208197	1.4323662	0.085111124	-0.19713959	0.65566539	0.10063953	0.038717329	1.4343045	0.11716671	-0.11797955	0.68291156	0.11500644	-0.045783132	1.391461	0.028724367	-0.15126183	0.59791533	0.094824043	-0.0067288196	1.2804186	0.44896446	-0.21885421	0.88215359	0.4342309	0.063423993	1.297699	0.4235574	-0.09863833	0.9140286	0.42335905	-0.060478745	1.1306388	0.79982909	-0.2655614	0.97838839	0.83162256	0.097252391	1.161508	0.91072889	-0.17949265	1.078184	0.91514467	0.062022822	0.92892251	0.91250774	-0.13666802	1.045734	1.3811476	-0.22528523	1.01974	1.3615107	0.10128011	0.94458213	1.3999859	-0.07201265	0.91711898	1.0604056	-0.26841514	1.0971137	1.0132476	0.16114029	0.98133606	0.83908135	-0.32676403	1.3354308	0.95477288	0.11030869
449	1.792	1.5630983	0.12456537	-0.16815619	0.78029419	0.038548782	0.0043205747	1.4364862	0.083831205	-0.1976085	0.65759178	0.10302777	0.039066928	1.4392661	0.11553037	-0.11824899	0.68494201	0.11702162	-0.045397652	1.3952093	0.0276535	-0.15170031	0.59964289	0.098318237	-0.0063128907	1.2878127	0.44891924	-0.21939031	0.88719331	0.4342783	0.063287089	1.3055067	0.42397476	-0.099269621	0.91919084	0.42316655	-0.060519443	1.1375525	0.79994532	-0.26603859	0.98421415	0.83127111	0.096404503	1.168227	0.91052975	-0.17971813	1.0843401	0.91466185	0.061648484	0.93676973	0.91198159	-0.13806893	1.0517877	1.3808313	-0.22623157	1.0257395	1.361218	0.10037851	0.95065267	1.3995861	-0.072958543	0.92251244	1.0598669	-0.26776977	1.1027806	1.012653	0.15932542	0.98746465	0.8386103	-0.32705564	1.3413054	0.95437034	0.10877495
450	1.796	1.5671651	0.12232691	-0.16884827	0.7807529	0.038508585	0.0043285914	1.4403731	0.082496421	-0.198081	0.65948699	0.10545965	0.039384939	1.4438249	0.11379221	-0.11862458	0.6871305	0.11909457	-0.045040426	1.3987255	0.026518699	-0.15213383	0.60158259	0.10187258	-0.0059797782	1.2951301	0.44885485	-0.21994982	0.89236449	0.43439276	0.063179984	1.3132509	0.42438634	-0.099951852	0.92447844	0.42300958	-0.060541278	1.1445135	0.80009132	-0.26650255	0.99016106	0.83094316	0.095561712	1.1749971	0.91040657	-0.17999433	1.0906388	0.91418802	0.06123752	0.94457492	0.91141738	-0.13903661	1.057905	1.3805508	-0.22719533	1.0317744	1.3609813	0.099444379	0.95675743	1.3992124	-0.073928591	0.92727507	1.0597961	-0.26754872	1.1082415	1.012051	0.15754449	0.99367313	0.83818051	-0.32738011	1.3470975	0.95392028	0.10726292
451	1.8	1.5710441	0.11985705	-0.16953213	0.78120733	0.038452286	0.0043312147	1.4440332	0.081111992	-0.19855857	0.66142699	0.10798693	0.039679824	1.4479875	0.11203762	-0.11906963	0.68949151	0.12121716	-0.044721867	1.4019972	0.025329943	-0.15257627	0.6037395	0.10550673	-0.0057380109	1.3023717	0.44877354	-0.22053359	0.89767025	0.43456311	0.063093928	1.3209382	0.4247917	-0.1006744	0.92990802	0.42287707	-0.060539423	1.1515271	0.80025305	-0.26695803	0.99622876	0.83064098	0.094723663	1.1818219	0.91035616	-0.1803228	1.0970824	0.91372206	0.060789695	0.95191024	0.91096943	-0.13972427	1.0640806	1.380305	-0.22817041	1.0378486	1.3607946	0.098483994	0.96289443	1.3988576	-0.074923178	0.9325303	1.059963	-0.26828325	1.1134783	1.0114361	0.15585304	0.99995727	0.83778645	-0.32773328	1.3528091	0.95343124	0.10577461
452	1.804	1.5747134	0.11721163	-0.17018667	0.78167283	0.038394599	0.0043128512	1.4474725	0.079680014	-0.19903984	0.66357197	0.11062309	0.039902496	1.4518333	0.1102903	-0.11954423	0.692038	0.12337991	-0.044439815	1.4049954	0.024124453	-0.15304378	0.60611148	0.10923847	-0.0055865653	1.3095339	0.44867826	-0.22114322	0.90311516	0.43477468	0.063024018	1.3285663	0.42517434	-0.10142508	0.93550187	0.42276293	-0.060511621	1.1586088	0.80042451	-0.2674134	1.0024296	0.83036539	0.093901934	1.1887087	0.91037594	-0.18070358	1.1036449	0.91328175	0.060310484	0.95887322	0.91078694	-0.14044477	1.0703001	1.3800918	-0.22916332	1.0439596	1.3606424	0.097499561	0.96906543	1.398517	-0.075962156	0.93847731	1.0601522	-0.26967196	1.1186013	1.0108248	0.15420729	1.0063123	0.83741916	-0.32811668	1.358448	0.95290421	0.10431587
453	1.808	1.5781757	0.11445646	-0.17083445	0.78218477	0.038352474	0.0042698264	1.4507033	0.078197856	-0.19952136	0.66598373	0.11334986	0.039998876	1.4554259	0.10854999	-0.12002819	0.69477824	0.12557273	-0.044185266	1.4076864	0.022981696	-0.15352737	0.60870053	0.11305919	-0.0055318457	1.3166129	0.44857254	-0.22177837	0.90870504	0.43499988	0.062973564	1.336126	0.42550821	-0.10219398	0.94127004	0.42265878	-0.060461264	1.1657738	0.80060728	-0.2678728	1.0087748	0.83011464	0.093105844	1.1956638	0.91045985	-0.18113445	1.1102984	0.91289248	0.059806308	0.96572203	0.91084034	-0.14128091	1.0765531	1.3799086	-0.2301855	1.0501013	1.3605097	0.096487067	0.97527915	1.3981968	-0.077053071	0.94486245	1.0602012	-0.27104183	1.1237668	1.0102482	0.15249561	1.0127392	0.83707153	-0.32852943	1.3640236	0.95233553	0.10288891
454	1.812	1.5814566	0.11163874	-0.17151766	0.78277897	0.038337608	0.0042127556	1.4537443	0.076653821	-0.20000139	0.66857556	0.11616598	0.040000728	1.4587951	0.10681944	-0.12051805	0.69772055	0.12778498	-0.043951609	1.4100171	0.022017515	-0.15399858	0.61150923	0.11694396	-0.0055761675	1.3236089	0.44845745	-0.22243816	0.9144428	0.43522186	0.06294452	1.3436099	0.42577349	-0.10297269	0.9472091	0.42254972	-0.060397443	1.1730267	0.80080348	-0.26833698	1.0152662	0.82988544	0.092327975	1.2026843	0.91059514	-0.18161081	1.1170314	0.91256309	0.059279934	0.97260895	0.91094779	-0.1421031	1.0828403	1.3797516	-0.23123969	1.0562653	1.3603884	0.095441154	0.98154286	1.3979124	-0.078173789	0.95146654	1.0600721	-0.27203628	1.1289899	1.0097047	0.15065452	1.0192417	0.83674434	-0.32897756	1.3695354	0.95172554	0.10148929
